<svg xmlns="http://www.w3.org/2000/svg" width="58" height="80" fill="none"><path fill="#F2F2F2" d="M.336 65.157V56.47h3.531c.65 0 1.19.095 1.624.284.434.19.76.453.978.79.218.333.327.717.327 1.153 0 .339-.069.637-.207.895a1.766 1.766 0 0 1-.568.627 2.347 2.347 0 0 1-.819.344v.085c.336.014.65.107.944.28.295.172.535.414.719.725.184.308.275.675.275 1.102 0 .461-.116.873-.348 1.234-.23.36-.57.644-1.021.853-.45.209-1.006.314-1.667.314H.336ZM2.2 63.655h1.52c.52 0 .899-.097 1.137-.292a.974.974 0 0 0 .357-.79c0-.24-.058-.451-.176-.635a1.194 1.194 0 0 0-.504-.433 1.749 1.749 0 0 0-.771-.157H2.201v2.307Zm0-3.55h1.382c.256 0 .482-.043.68-.13.202-.091.36-.218.474-.382a.984.984 0 0 0 .177-.59.946.946 0 0 0-.34-.759c-.224-.192-.543-.288-.956-.288H2.2v2.15ZM8.32 65.157v-6.514h1.834v6.514H8.319Zm.921-7.354c-.273 0-.507-.09-.702-.267a.86.86 0 0 1-.289-.65c0-.248.097-.461.289-.64a.997.997 0 0 1 .702-.27c.273 0 .505.09.698.27a.854.854 0 0 1 0 1.29.99.99 0 0 1-.698.267ZM11.658 65.157V56.47h1.835v3.266h.056c.08-.175.196-.354.349-.535.155-.183.356-.336.603-.458.25-.124.56-.186.93-.186.482 0 .927.124 1.335.373.408.246.733.618.977 1.115.245.495.367 1.116.367 1.862 0 .727-.12 1.34-.358 1.84-.235.498-.557.876-.965 1.133a2.505 2.505 0 0 1-1.36.382c-.357 0-.66-.058-.91-.174a1.878 1.878 0 0 1-.606-.437 2.22 2.22 0 0 1-.362-.539h-.082v1.044h-1.809Zm1.796-3.257c0 .387.054.725.164 1.013.109.289.267.513.473.675.207.158.458.237.754.237.299 0 .551-.08.758-.242.207-.164.363-.39.47-.678.108-.291.163-.627.163-1.005 0-.376-.053-.707-.16-.993a1.479 1.479 0 0 0-.469-.67 1.202 1.202 0 0 0-.762-.242c-.299 0-.551.078-.758.234-.204.155-.36.376-.47.661-.109.286-.163.622-.163 1.01ZM21.168 56.471v8.686h-1.834V56.47h1.834ZM22.638 65.157v-6.514h1.835v6.514h-1.835Zm.922-7.354c-.273 0-.507-.09-.702-.267a.86.86 0 0 1-.289-.65c0-.248.096-.461.289-.64a.997.997 0 0 1 .702-.27c.272 0 .505.09.697.27a.854.854 0 0 1 0 1.29.99.99 0 0 1-.697.267ZM28.931 65.284c-.669 0-1.248-.14-1.736-.42a2.892 2.892 0 0 1-1.124-1.179c-.264-.506-.396-1.093-.396-1.76 0-.673.132-1.26.396-1.764.265-.506.64-.9 1.124-1.18.488-.282 1.067-.423 1.736-.423s1.246.141 1.731.424c.488.28.864.673 1.129 1.179.264.503.396 1.091.396 1.764 0 .667-.132 1.254-.396 1.76-.265.503-.64.896-1.129 1.179-.485.28-1.062.42-1.731.42Zm.009-1.4c.304 0 .558-.084.762-.254.204-.173.357-.407.46-.704.107-.297.16-.635.16-1.014s-.053-.716-.16-1.013a1.575 1.575 0 0 0-.46-.704 1.14 1.14 0 0 0-.762-.259 1.18 1.18 0 0 0-.776.259 1.589 1.589 0 0 0-.469.704 3.075 3.075 0 0 0-.155 1.013c0 .38.052.717.155 1.014.106.297.263.531.47.704.209.17.467.254.775.254ZM36.898 58.643V60h-3.983v-1.357h3.983Zm-3.079-1.561h1.835v6.073c0 .167.026.297.077.39.052.09.124.154.216.19a.9.9 0 0 0 .327.056c.086 0 .172-.007.258-.021l.198-.038.289 1.344c-.092.028-.221.06-.388.098-.166.04-.369.063-.607.072-.442.017-.83-.041-1.163-.174a1.618 1.618 0 0 1-.77-.62c-.184-.28-.275-.633-.272-1.06v-6.31ZM41.037 65.284c-.68 0-1.266-.136-1.757-.407a2.806 2.806 0 0 1-1.128-1.162c-.265-.504-.397-1.099-.397-1.786 0-.67.132-1.258.397-1.764.264-.506.636-.9 1.115-1.183.482-.283 1.048-.424 1.697-.424a3.5 3.5 0 0 1 1.219.208c.379.135.709.34.99.614.284.275.505.62.663 1.035.158.413.237.897.237 1.45v.497h-5.586v-1.12h3.86c0-.26-.058-.49-.173-.691a1.225 1.225 0 0 0-.478-.47 1.38 1.38 0 0 0-.702-.175c-.279 0-.526.064-.74.191a1.349 1.349 0 0 0-.5.505c-.12.21-.183.442-.185.7v1.064c0 .322.06.6.18.836.124.234.297.415.521.542.224.128.49.191.797.191.204 0 .39-.028.56-.085a1.104 1.104 0 0 0 .71-.67l1.698.11a2.268 2.268 0 0 1-.53 1.052 2.661 2.661 0 0 1-1.025.696c-.417.164-.897.246-1.443.246ZM48.26 65.284c-.678 0-1.261-.142-1.75-.424a2.885 2.885 0 0 1-1.119-1.188c-.258-.506-.387-1.088-.387-1.747 0-.667.13-1.252.391-1.756.264-.506.64-.9 1.124-1.183.486-.285 1.063-.428 1.732-.428.577 0 1.082.103 1.516.31.433.206.776.496 1.029.869.253.373.392.811.418 1.314h-1.732a1.309 1.309 0 0 0-.387-.784c-.207-.2-.478-.301-.814-.301-.284 0-.533.076-.745.229-.21.15-.373.369-.491.657-.118.289-.177.638-.177 1.048 0 .415.058.769.172 1.06.118.291.283.513.496.666.212.152.46.229.745.229.21 0 .398-.043.564-.127.17-.085.309-.208.418-.37a1.4 1.4 0 0 0 .22-.589h1.73a2.641 2.641 0 0 1-.413 1.315c-.244.376-.581.67-1.012.882-.43.212-.94.318-1.529.318ZM54.275 65.28c-.422 0-.799-.073-1.129-.217a1.81 1.81 0 0 1-.784-.648c-.189-.289-.284-.648-.284-1.078 0-.362.068-.666.203-.912.135-.245.318-.443.55-.593.233-.15.498-.263.793-.34a6.13 6.13 0 0 1 .94-.16c.384-.04.694-.077.93-.11.235-.038.406-.091.512-.162a.353.353 0 0 0 .16-.314v-.025c0-.269-.087-.477-.26-.624-.169-.147-.41-.22-.723-.22-.33 0-.593.072-.788.216a.996.996 0 0 0-.387.534l-1.697-.135c.086-.396.255-.738.508-1.027.253-.29.578-.514.978-.67.402-.158.867-.237 1.395-.237.367 0 .72.042 1.055.127.339.085.639.216.9.394.264.178.472.408.625.688.152.276.228.609.228.996v4.394h-1.74v-.904h-.052a1.842 1.842 0 0 1-.426.539 1.982 1.982 0 0 1-.642.36 2.69 2.69 0 0 1-.865.128Zm.525-1.247c.27 0 .508-.053.715-.157a1.26 1.26 0 0 0 .487-.433c.117-.18.176-.386.176-.615v-.69a.987.987 0 0 1-.237.1 4.393 4.393 0 0 1-.331.081c-.124.023-.247.044-.37.064l-.337.047c-.215.03-.403.08-.564.148a.9.9 0 0 0-.374.276.665.665 0 0 0-.134.424c0 .246.09.434.271.564.184.127.417.19.698.19Z"/><path fill="#2F80ED" d="M0 70.386v-1.514h7.244v1.514h-2.7v7.172H2.7v-7.172H0ZM7.715 77.558v-6.515h1.779v1.137h.069c.12-.404.323-.71.607-.916.284-.21.612-.314.982-.314a2.82 2.82 0 0 1 .577.064v1.603a2.425 2.425 0 0 0-.357-.068 3.259 3.259 0 0 0-.418-.03c-.27 0-.511.058-.724.174-.21.113-.376.272-.5.475-.12.204-.18.438-.18.704v3.686H7.715ZM12.678 77.558v-6.515h1.834v6.514h-1.834Zm.921-7.354c-.272 0-.506-.09-.702-.267a.86.86 0 0 1-.288-.65c0-.248.096-.462.288-.64a.997.997 0 0 1 .702-.271c.273 0 .506.09.698.271a.855.855 0 0 1 0 1.29.99.99 0 0 1-.698.267ZM15.982 80v-8.957h1.809v1.095h.082c.08-.176.196-.354.348-.535.155-.183.357-.336.603-.458.25-.124.56-.186.93-.186.483 0 .928.124 1.336.373.407.246.733.618.977 1.115.244.495.366 1.116.366 1.862 0 .727-.119 1.34-.357 1.84-.236.498-.557.876-.965 1.133a2.505 2.505 0 0 1-1.36.382c-.357 0-.66-.058-.91-.174a1.88 1.88 0 0 1-.607-.437 2.217 2.217 0 0 1-.361-.539h-.056V80h-1.835Zm1.796-5.7c0 .388.054.726.164 1.014.109.289.267.513.473.674.207.159.458.238.754.238.299 0 .551-.08.758-.242.207-.164.363-.39.47-.678.108-.292.163-.627.163-1.005a2.84 2.84 0 0 0-.16-.993 1.478 1.478 0 0 0-.469-.67 1.202 1.202 0 0 0-.762-.242c-.299 0-.551.078-.758.234-.204.155-.36.376-.47.661-.109.286-.163.622-.163 1.01ZM25.491 68.872v8.686h-1.835v-8.686h1.835ZM29.975 77.685c-.68 0-1.266-.136-1.757-.407a2.808 2.808 0 0 1-1.128-1.162c-.264-.504-.396-1.099-.396-1.786 0-.67.132-1.258.396-1.764s.636-.9 1.115-1.183c.483-.283 1.048-.424 1.697-.424.437 0 .843.069 1.219.207.379.136.71.341.99.615.285.275.506.62.664 1.035.158.413.237.896.237 1.45v.497h-5.586v-1.12h3.859c0-.26-.058-.49-.173-.691a1.225 1.225 0 0 0-.478-.47 1.38 1.38 0 0 0-.702-.175c-.278 0-.525.064-.74.191a1.347 1.347 0 0 0-.5.505c-.12.209-.182.442-.185.7v1.064c0 .322.06.6.18.836.124.234.298.415.522.542.224.127.49.191.797.191.203 0 .39-.028.56-.085a1.107 1.107 0 0 0 .71-.67l1.697.11a2.268 2.268 0 0 1-.53 1.052 2.662 2.662 0 0 1-1.025.696c-.416.164-.897.246-1.443.246Z"/><path fill="#F2F2F2" fill-rule="evenodd" d="m0 4.554 19.256 6.474v28.54L0 33.095V4.554Zm2.047 2.819v24.28l15.161 5.097V12.47L2.048 7.373Z" clip-rule="evenodd"/><path fill="#F2F2F2" fill-rule="evenodd" d="m9.25 0 19.256 6.474v28.54L9.25 28.54V0Zm2.047 2.818v24.28l15.162 5.098V7.916L11.297 2.818Z" clip-rule="evenodd"/></svg>